<?xml version="1.0" standalone="no"?>
<!DOCTYPE svg PUBLIC "-//W3C//DTD SVG 20010904//EN"
 "http://www.w3.org/TR/2001/REC-SVG-20010904/DTD/svg10.dtd">
<svg version="1.0" xmlns="http://www.w3.org/2000/svg"
 width="256.000000pt" height="256.000000pt" viewBox="0 0 256.000000 256.000000"
 preserveAspectRatio="xMidYMid meet">
<metadata>
Created by potrace 1.11, written by Peter Selinger 2001-2013
</metadata>
<g transform="translate(0.000000,256.000000) scale(0.100000,-0.100000)"
fill="#000000" stroke="none">
<path d="M380 2263 c1 -65 156 -1772 161 -1778 4 -3 171 -53 373 -110 l366
-105 366 105 c202 57 369 107 373 110 5 6 160 1713 161 1778 l0 27 -900 0
-900 0 0 -27z m1388 -475 c-3 -46 -7 -95 -7 -110 l-1 -28 -369 0 -370 0 5 -72
c3 -40 7 -88 10 -105 l5 -33 349 0 350 0 0 -22 c0 -13 -7 -152 -17 -309 l-16
-285 -211 -71 -211 -70 -210 70 c-116 38 -212 72 -215 74 -3 3 -10 70 -15 149
l-10 144 107 0 c121 0 115 5 120 -89 l3 -44 104 -35 104 -35 104 34 c57 18
108 38 112 44 5 5 11 58 14 118 l6 107 -339 0 -338 0 -6 78 c-3 42 -11 160
-16 262 -6 102 -13 213 -16 248 l-6 62 494 0 493 0 -7 -82z"/>
</g>
</svg>
